<svg xmlns="http://www.w3.org/2000/svg" viewBox="0 0 22.44 21.32"><title>star-outline2</title><polygon points="21.22 8.52 14.03 7.91 11.22 1.28 8.41 7.91 1.22 8.52 6.67 13.25 5.04 20.28 11.22 16.55 17.4 20.28 15.76 13.25 21.22 8.52" fill="none" stroke="#231f20" stroke-miterlimit="10" opacity="0.3"/><path d="M22,10.24l-7.19-.61L12,3,9.19,9.63,2,10.24,7.45,15,5.82,22,12,18.27,18.18,22l-1.64-7ZM12,16.39L8.24,18.66l1-4.28L5.91,11.5l4.38-.37,1.71-4,1.71,4,4.38,0.37-3.32,2.88,1,4.28Z" transform="translate(-0.78 -1.72)" fill="#d9a528"/></svg>