<svg xmlns="http://www.w3.org/2000/svg" viewBox="0 0 23.61 22.48"><title>star-half</title><g opacity="0.5"><path d="M23.8,9.67l-8.47-.75L12,1.06,8.69,8.94l-8.5.72,6.45,5.59-2,8.3L12,19.17l7.3,4.38-1.94-8.33ZM18.18,22L12,18.27,5.82,22l1.63-7L2,10.24l7.19-.61L12,3l2.81,6.63L22,10.24,16.54,15Z" transform="translate(-0.19 -1.06)" fill="#231f20"/></g><g opacity="0.15"><path d="M22,10.24l-7.19-.61L12,3,9.19,9.63,2,10.24,7.45,15,5.82,22,12,18.27,18.18,22l-1.64-7Z" transform="translate(-0.19 -1.06)" fill="#fff"/></g><path d="M12,3L9.19,9.63,2,10.24,7.45,15,5.82,22,12,18.27V3" transform="translate(-0.19 -1.06)" fill="#d4af34"/></svg>